<mxfile host="app.diagrams.net" modified="2022-08-17T15:00:56.788Z" agent="5.0 (Macintosh; Intel Mac OS X 10_15_7) AppleWebKit/605.1.15 (KHTML, like Gecko) Version/15.6 Safari/605.1.15" etag="fK6kG5ermL0ObmDtFltS" version="20.2.4" type="github">
  <diagram id="z4lFO9Eib9nhHwq76cOu" name="Sayfa -3">
    <mxGraphModel dx="1351" dy="783" grid="1" gridSize="10" guides="1" tooltips="1" connect="1" arrows="1" fold="1" page="1" pageScale="1" pageWidth="3300" pageHeight="2339" math="0" shadow="0">
      <root>
        <mxCell id="0" />
        <mxCell id="1" parent="0" />
        <mxCell id="vvmLUCfZbikaywOgqDu1-5" value="HAVAALANLARI&#xa;" style="swimlane;fontStyle=1;align=center;verticalAlign=top;childLayout=stackLayout;horizontal=1;startSize=26;horizontalStack=0;resizeParent=1;resizeParentMax=0;resizeLast=0;collapsible=1;marginBottom=0;fontSize=16;" vertex="1" parent="1">
          <mxGeometry x="30" y="50" width="200" height="88" as="geometry" />
        </mxCell>
        <mxCell id="vvmLUCfZbikaywOgqDu1-6" value="+name: string&#xa;+id: int" style="text;strokeColor=none;fillColor=none;align=left;verticalAlign=top;spacingLeft=4;spacingRight=4;overflow=hidden;rotatable=0;points=[[0,0.5],[1,0.5]];portConstraint=eastwest;fontSize=16;" vertex="1" parent="vvmLUCfZbikaywOgqDu1-5">
          <mxGeometry y="26" width="200" height="54" as="geometry" />
        </mxCell>
        <mxCell id="vvmLUCfZbikaywOgqDu1-7" value="" style="line;strokeWidth=1;fillColor=none;align=left;verticalAlign=middle;spacingTop=-1;spacingLeft=3;spacingRight=3;rotatable=0;labelPosition=right;points=[];portConstraint=eastwest;fontSize=16;" vertex="1" parent="vvmLUCfZbikaywOgqDu1-5">
          <mxGeometry y="80" width="200" height="8" as="geometry" />
        </mxCell>
        <mxCell id="vvmLUCfZbikaywOgqDu1-9" value="HAVAYOLU ŞİRKETLERİ&#xa;" style="swimlane;fontStyle=1;align=center;verticalAlign=top;childLayout=stackLayout;horizontal=1;startSize=26;horizontalStack=0;resizeParent=1;resizeParentMax=0;resizeLast=0;collapsible=1;marginBottom=0;fontSize=16;" vertex="1" parent="1">
          <mxGeometry x="430" y="50" width="210" height="120" as="geometry" />
        </mxCell>
        <mxCell id="vvmLUCfZbikaywOgqDu1-10" value="+name: string&#xa;+id: int" style="text;strokeColor=none;fillColor=none;align=left;verticalAlign=top;spacingLeft=4;spacingRight=4;overflow=hidden;rotatable=0;points=[[0,0.5],[1,0.5]];portConstraint=eastwest;fontSize=16;" vertex="1" parent="vvmLUCfZbikaywOgqDu1-9">
          <mxGeometry y="26" width="210" height="44" as="geometry" />
        </mxCell>
        <mxCell id="vvmLUCfZbikaywOgqDu1-11" value="" style="line;strokeWidth=1;fillColor=none;align=left;verticalAlign=middle;spacingTop=-1;spacingLeft=3;spacingRight=3;rotatable=0;labelPosition=right;points=[];portConstraint=eastwest;fontSize=16;" vertex="1" parent="vvmLUCfZbikaywOgqDu1-9">
          <mxGeometry y="70" width="210" height="8" as="geometry" />
        </mxCell>
        <mxCell id="vvmLUCfZbikaywOgqDu1-12" value="+schedule flight: int" style="text;strokeColor=none;fillColor=none;align=left;verticalAlign=top;spacingLeft=4;spacingRight=4;overflow=hidden;rotatable=0;points=[[0,0.5],[1,0.5]];portConstraint=eastwest;fontSize=16;" vertex="1" parent="vvmLUCfZbikaywOgqDu1-9">
          <mxGeometry y="78" width="210" height="42" as="geometry" />
        </mxCell>
        <mxCell id="vvmLUCfZbikaywOgqDu1-13" value="UÇAKLAR&#xa;" style="swimlane;fontStyle=1;align=center;verticalAlign=top;childLayout=stackLayout;horizontal=1;startSize=26;horizontalStack=0;resizeParent=1;resizeParentMax=0;resizeLast=0;collapsible=1;marginBottom=0;fontSize=16;" vertex="1" parent="1">
          <mxGeometry x="950" y="40" width="210" height="140" as="geometry" />
        </mxCell>
        <mxCell id="vvmLUCfZbikaywOgqDu1-14" value="+name: string&#xa;+airplane type: int" style="text;strokeColor=none;fillColor=none;align=left;verticalAlign=top;spacingLeft=4;spacingRight=4;overflow=hidden;rotatable=0;points=[[0,0.5],[1,0.5]];portConstraint=eastwest;fontSize=16;" vertex="1" parent="vvmLUCfZbikaywOgqDu1-13">
          <mxGeometry y="26" width="210" height="44" as="geometry" />
        </mxCell>
        <mxCell id="vvmLUCfZbikaywOgqDu1-15" value="" style="line;strokeWidth=1;fillColor=none;align=left;verticalAlign=middle;spacingTop=-1;spacingLeft=3;spacingRight=3;rotatable=0;labelPosition=right;points=[];portConstraint=eastwest;fontSize=16;" vertex="1" parent="vvmLUCfZbikaywOgqDu1-13">
          <mxGeometry y="70" width="210" height="8" as="geometry" />
        </mxCell>
        <mxCell id="vvmLUCfZbikaywOgqDu1-16" value="+İnOperation()&#xa;+İnRepair()" style="text;strokeColor=none;fillColor=none;align=left;verticalAlign=top;spacingLeft=4;spacingRight=4;overflow=hidden;rotatable=0;points=[[0,0.5],[1,0.5]];portConstraint=eastwest;fontSize=16;" vertex="1" parent="vvmLUCfZbikaywOgqDu1-13">
          <mxGeometry y="78" width="210" height="62" as="geometry" />
        </mxCell>
        <mxCell id="vvmLUCfZbikaywOgqDu1-17" value="UÇUŞLAR" style="swimlane;fontStyle=1;align=center;verticalAlign=top;childLayout=stackLayout;horizontal=1;startSize=26;horizontalStack=0;resizeParent=1;resizeParentMax=0;resizeLast=0;collapsible=1;marginBottom=0;fontSize=16;" vertex="1" parent="1">
          <mxGeometry x="430" y="320" width="250" height="330" as="geometry" />
        </mxCell>
        <mxCell id="vvmLUCfZbikaywOgqDu1-18" value="+id: int&#xa;+departure airport: string&#xa;+landing airport: string&#xa;+departure time: int&#xa;+landing time: int" style="text;strokeColor=none;fillColor=none;align=left;verticalAlign=top;spacingLeft=4;spacingRight=4;overflow=hidden;rotatable=0;points=[[0,0.5],[1,0.5]];portConstraint=eastwest;fontSize=16;" vertex="1" parent="vvmLUCfZbikaywOgqDu1-17">
          <mxGeometry y="26" width="250" height="114" as="geometry" />
        </mxCell>
        <mxCell id="vvmLUCfZbikaywOgqDu1-19" value="" style="line;strokeWidth=1;fillColor=none;align=left;verticalAlign=middle;spacingTop=-1;spacingLeft=3;spacingRight=3;rotatable=0;labelPosition=right;points=[];portConstraint=eastwest;fontSize=16;" vertex="1" parent="vvmLUCfZbikaywOgqDu1-17">
          <mxGeometry y="140" width="250" height="8" as="geometry" />
        </mxCell>
        <mxCell id="vvmLUCfZbikaywOgqDu1-20" value="+getdeparture airport(): string&#xa;+setdeparture airport: (n string)&#xa;+getlanding airport(): string&#xa;+setlanding airport: (n string)&#xa;+getdeparture time(): int&#xa;+setdeparture time:(n int)&#xa;+getlanding time: int&#xa;+setlanding time: (n int)" style="text;strokeColor=none;fillColor=none;align=left;verticalAlign=top;spacingLeft=4;spacingRight=4;overflow=hidden;rotatable=0;points=[[0,0.5],[1,0.5]];portConstraint=eastwest;fontSize=16;" vertex="1" parent="vvmLUCfZbikaywOgqDu1-17">
          <mxGeometry y="148" width="250" height="182" as="geometry" />
        </mxCell>
        <mxCell id="vvmLUCfZbikaywOgqDu1-21" value="PİLOTLAR" style="swimlane;fontStyle=1;align=center;verticalAlign=top;childLayout=stackLayout;horizontal=1;startSize=26;horizontalStack=0;resizeParent=1;resizeParentMax=0;resizeLast=0;collapsible=1;marginBottom=0;fontSize=16;" vertex="1" parent="1">
          <mxGeometry x="960" y="320" width="210" height="120" as="geometry" />
        </mxCell>
        <mxCell id="vvmLUCfZbikaywOgqDu1-22" value="+name: string&#xa;+experiencelevel: string" style="text;strokeColor=none;fillColor=none;align=left;verticalAlign=top;spacingLeft=4;spacingRight=4;overflow=hidden;rotatable=0;points=[[0,0.5],[1,0.5]];portConstraint=eastwest;fontSize=16;" vertex="1" parent="vvmLUCfZbikaywOgqDu1-21">
          <mxGeometry y="26" width="210" height="44" as="geometry" />
        </mxCell>
        <mxCell id="vvmLUCfZbikaywOgqDu1-23" value="" style="line;strokeWidth=1;fillColor=none;align=left;verticalAlign=middle;spacingTop=-1;spacingLeft=3;spacingRight=3;rotatable=0;labelPosition=right;points=[];portConstraint=eastwest;fontSize=16;" vertex="1" parent="vvmLUCfZbikaywOgqDu1-21">
          <mxGeometry y="70" width="210" height="8" as="geometry" />
        </mxCell>
        <mxCell id="vvmLUCfZbikaywOgqDu1-24" value="+usePlane()" style="text;strokeColor=none;fillColor=none;align=left;verticalAlign=top;spacingLeft=4;spacingRight=4;overflow=hidden;rotatable=0;points=[[0,0.5],[1,0.5]];portConstraint=eastwest;fontSize=16;" vertex="1" parent="vvmLUCfZbikaywOgqDu1-21">
          <mxGeometry y="78" width="210" height="42" as="geometry" />
        </mxCell>
        <mxCell id="vvmLUCfZbikaywOgqDu1-25" value="KAPTAN PİLOT" style="swimlane;fontStyle=1;align=center;verticalAlign=top;childLayout=stackLayout;horizontal=1;startSize=26;horizontalStack=0;resizeParent=1;resizeParentMax=0;resizeLast=0;collapsible=1;marginBottom=0;fontSize=16;" vertex="1" parent="1">
          <mxGeometry x="800" y="550" width="210" height="120" as="geometry" />
        </mxCell>
        <mxCell id="vvmLUCfZbikaywOgqDu1-26" value=" " style="text;strokeColor=none;fillColor=none;align=left;verticalAlign=top;spacingLeft=4;spacingRight=4;overflow=hidden;rotatable=0;points=[[0,0.5],[1,0.5]];portConstraint=eastwest;fontSize=16;" vertex="1" parent="vvmLUCfZbikaywOgqDu1-25">
          <mxGeometry y="26" width="210" height="44" as="geometry" />
        </mxCell>
        <mxCell id="vvmLUCfZbikaywOgqDu1-27" value="" style="line;strokeWidth=1;fillColor=none;align=left;verticalAlign=middle;spacingTop=-1;spacingLeft=3;spacingRight=3;rotatable=0;labelPosition=right;points=[];portConstraint=eastwest;fontSize=16;" vertex="1" parent="vvmLUCfZbikaywOgqDu1-25">
          <mxGeometry y="70" width="210" height="8" as="geometry" />
        </mxCell>
        <mxCell id="vvmLUCfZbikaywOgqDu1-28" value=" " style="text;strokeColor=none;fillColor=none;align=left;verticalAlign=top;spacingLeft=4;spacingRight=4;overflow=hidden;rotatable=0;points=[[0,0.5],[1,0.5]];portConstraint=eastwest;fontSize=16;" vertex="1" parent="vvmLUCfZbikaywOgqDu1-25">
          <mxGeometry y="78" width="210" height="42" as="geometry" />
        </mxCell>
        <mxCell id="vvmLUCfZbikaywOgqDu1-29" value="YARDIMCI PİLOT" style="swimlane;fontStyle=1;align=center;verticalAlign=top;childLayout=stackLayout;horizontal=1;startSize=26;horizontalStack=0;resizeParent=1;resizeParentMax=0;resizeLast=0;collapsible=1;marginBottom=0;fontSize=16;" vertex="1" parent="1">
          <mxGeometry x="1110" y="550" width="210" height="120" as="geometry" />
        </mxCell>
        <mxCell id="vvmLUCfZbikaywOgqDu1-30" value=" " style="text;strokeColor=none;fillColor=none;align=left;verticalAlign=top;spacingLeft=4;spacingRight=4;overflow=hidden;rotatable=0;points=[[0,0.5],[1,0.5]];portConstraint=eastwest;fontSize=16;" vertex="1" parent="vvmLUCfZbikaywOgqDu1-29">
          <mxGeometry y="26" width="210" height="44" as="geometry" />
        </mxCell>
        <mxCell id="vvmLUCfZbikaywOgqDu1-31" value="" style="line;strokeWidth=1;fillColor=none;align=left;verticalAlign=middle;spacingTop=-1;spacingLeft=3;spacingRight=3;rotatable=0;labelPosition=right;points=[];portConstraint=eastwest;fontSize=16;" vertex="1" parent="vvmLUCfZbikaywOgqDu1-29">
          <mxGeometry y="70" width="210" height="8" as="geometry" />
        </mxCell>
        <mxCell id="vvmLUCfZbikaywOgqDu1-32" value=" " style="text;strokeColor=none;fillColor=none;align=left;verticalAlign=top;spacingLeft=4;spacingRight=4;overflow=hidden;rotatable=0;points=[[0,0.5],[1,0.5]];portConstraint=eastwest;fontSize=16;" vertex="1" parent="vvmLUCfZbikaywOgqDu1-29">
          <mxGeometry y="78" width="210" height="42" as="geometry" />
        </mxCell>
        <mxCell id="vvmLUCfZbikaywOgqDu1-33" value="" style="endArrow=diamondThin;endFill=0;endSize=24;html=1;rounded=0;fontSize=12;curved=1;" edge="1" parent="1">
          <mxGeometry width="160" relative="1" as="geometry">
            <mxPoint x="950" y="109" as="sourcePoint" />
            <mxPoint x="640" y="109.33000000000001" as="targetPoint" />
          </mxGeometry>
        </mxCell>
        <mxCell id="vvmLUCfZbikaywOgqDu1-35" value="1..*" style="text;html=1;strokeColor=none;fillColor=none;align=center;verticalAlign=middle;whiteSpace=wrap;rounded=0;fontSize=16;" vertex="1" parent="1">
          <mxGeometry x="875" y="79" width="60" height="30" as="geometry" />
        </mxCell>
        <mxCell id="vvmLUCfZbikaywOgqDu1-37" value="" style="endArrow=diamondThin;endFill=1;endSize=24;html=1;rounded=0;fontSize=12;curved=1;exitX=0.002;exitY=0.04;exitDx=0;exitDy=0;exitPerimeter=0;" edge="1" parent="1" source="vvmLUCfZbikaywOgqDu1-24">
          <mxGeometry width="160" relative="1" as="geometry">
            <mxPoint x="950" y="400" as="sourcePoint" />
            <mxPoint x="680" y="400" as="targetPoint" />
          </mxGeometry>
        </mxCell>
        <mxCell id="vvmLUCfZbikaywOgqDu1-38" value="2" style="text;html=1;strokeColor=none;fillColor=none;align=center;verticalAlign=middle;whiteSpace=wrap;rounded=0;fontSize=16;" vertex="1" parent="1">
          <mxGeometry x="900" y="365" width="60" height="30" as="geometry" />
        </mxCell>
        <mxCell id="vvmLUCfZbikaywOgqDu1-39" value="" style="endArrow=none;html=1;rounded=0;fontSize=12;startSize=14;endSize=14;curved=1;exitX=0.5;exitY=0;exitDx=0;exitDy=0;" edge="1" parent="1" source="vvmLUCfZbikaywOgqDu1-25">
          <mxGeometry width="50" height="50" relative="1" as="geometry">
            <mxPoint x="904.33" y="530" as="sourcePoint" />
            <mxPoint x="905" y="480" as="targetPoint" />
          </mxGeometry>
        </mxCell>
        <mxCell id="vvmLUCfZbikaywOgqDu1-40" value="" style="endArrow=none;html=1;rounded=0;fontSize=12;startSize=14;endSize=14;curved=1;exitX=0.5;exitY=0;exitDx=0;exitDy=0;" edge="1" parent="1">
          <mxGeometry width="50" height="50" relative="1" as="geometry">
            <mxPoint x="1200" y="550" as="sourcePoint" />
            <mxPoint x="1200" y="480" as="targetPoint" />
          </mxGeometry>
        </mxCell>
        <mxCell id="vvmLUCfZbikaywOgqDu1-41" value="" style="endArrow=none;html=1;rounded=0;fontSize=12;startSize=14;endSize=14;curved=1;" edge="1" parent="1">
          <mxGeometry width="50" height="50" relative="1" as="geometry">
            <mxPoint x="910" y="480" as="sourcePoint" />
            <mxPoint x="1200" y="480" as="targetPoint" />
          </mxGeometry>
        </mxCell>
        <mxCell id="vvmLUCfZbikaywOgqDu1-42" value="" style="endArrow=none;html=1;rounded=0;fontSize=12;startSize=14;endSize=14;curved=1;startArrow=none;" edge="1" parent="1" source="vvmLUCfZbikaywOgqDu1-43">
          <mxGeometry width="50" height="50" relative="1" as="geometry">
            <mxPoint x="1054" y="480" as="sourcePoint" />
            <mxPoint x="1054.33" y="450" as="targetPoint" />
          </mxGeometry>
        </mxCell>
        <mxCell id="vvmLUCfZbikaywOgqDu1-43" value="" style="triangle;whiteSpace=wrap;html=1;fontSize=16;rotation=-90;" vertex="1" parent="1">
          <mxGeometry x="1042.5" y="440" width="25" height="25" as="geometry" />
        </mxCell>
        <mxCell id="vvmLUCfZbikaywOgqDu1-45" value="" style="endArrow=none;html=1;rounded=0;fontSize=12;startSize=14;endSize=14;curved=1;" edge="1" parent="1" target="vvmLUCfZbikaywOgqDu1-43">
          <mxGeometry width="50" height="50" relative="1" as="geometry">
            <mxPoint x="1054" y="480" as="sourcePoint" />
            <mxPoint x="1054.33" y="450" as="targetPoint" />
          </mxGeometry>
        </mxCell>
        <mxCell id="vvmLUCfZbikaywOgqDu1-49" value="" style="endArrow=diamondThin;endFill=1;endSize=24;html=1;rounded=0;fontSize=12;curved=1;" edge="1" parent="1">
          <mxGeometry width="160" relative="1" as="geometry">
            <mxPoint x="1110" y="600" as="sourcePoint" />
            <mxPoint x="1010" y="600.3199999999999" as="targetPoint" />
          </mxGeometry>
        </mxCell>
        <mxCell id="vvmLUCfZbikaywOgqDu1-50" value="" style="endArrow=none;html=1;rounded=0;fontSize=12;startSize=14;endSize=14;curved=1;exitX=0.5;exitY=0;exitDx=0;exitDy=0;" edge="1" parent="1">
          <mxGeometry width="50" height="50" relative="1" as="geometry">
            <mxPoint x="534.3299999999999" y="240" as="sourcePoint" />
            <mxPoint x="534.3299999999999" y="170" as="targetPoint" />
          </mxGeometry>
        </mxCell>
        <mxCell id="vvmLUCfZbikaywOgqDu1-51" value="" style="endArrow=none;html=1;rounded=0;fontSize=12;startSize=14;endSize=14;curved=1;" edge="1" parent="1">
          <mxGeometry width="50" height="50" relative="1" as="geometry">
            <mxPoint x="530" y="240" as="sourcePoint" />
            <mxPoint x="1070" y="240" as="targetPoint" />
          </mxGeometry>
        </mxCell>
        <mxCell id="vvmLUCfZbikaywOgqDu1-52" value="" style="endArrow=none;html=1;rounded=0;fontSize=12;startSize=14;endSize=14;curved=1;" edge="1" parent="1">
          <mxGeometry width="50" height="50" relative="1" as="geometry">
            <mxPoint x="1068" y="320" as="sourcePoint" />
            <mxPoint x="1067.5" y="240" as="targetPoint" />
          </mxGeometry>
        </mxCell>
        <mxCell id="vvmLUCfZbikaywOgqDu1-53" value="1..*" style="text;html=1;strokeColor=none;fillColor=none;align=center;verticalAlign=middle;whiteSpace=wrap;rounded=0;fontSize=16;" vertex="1" parent="1">
          <mxGeometry x="525" y="170" width="60" height="30" as="geometry" />
        </mxCell>
        <mxCell id="vvmLUCfZbikaywOgqDu1-54" value="1..*" style="text;html=1;strokeColor=none;fillColor=none;align=center;verticalAlign=middle;whiteSpace=wrap;rounded=0;fontSize=16;" vertex="1" parent="1">
          <mxGeometry x="1007.5" y="290" width="60" height="30" as="geometry" />
        </mxCell>
        <mxCell id="vvmLUCfZbikaywOgqDu1-55" value="" style="endArrow=none;html=1;rounded=0;fontSize=12;startSize=14;endSize=14;curved=1;exitX=1;exitY=0.5;exitDx=0;exitDy=0;" edge="1" parent="1" source="vvmLUCfZbikaywOgqDu1-14">
          <mxGeometry width="50" height="50" relative="1" as="geometry">
            <mxPoint x="1350" y="160" as="sourcePoint" />
            <mxPoint x="1280" y="88" as="targetPoint" />
          </mxGeometry>
        </mxCell>
        <mxCell id="vvmLUCfZbikaywOgqDu1-56" value="" style="endArrow=none;html=1;rounded=0;fontSize=12;startSize=14;endSize=14;curved=1;" edge="1" parent="1">
          <mxGeometry width="50" height="50" relative="1" as="geometry">
            <mxPoint x="1280" y="380" as="sourcePoint" />
            <mxPoint x="1280" y="90" as="targetPoint" />
          </mxGeometry>
        </mxCell>
        <mxCell id="vvmLUCfZbikaywOgqDu1-57" value="" style="endArrow=none;html=1;rounded=0;fontSize=12;startSize=14;endSize=14;curved=1;" edge="1" parent="1">
          <mxGeometry width="50" height="50" relative="1" as="geometry">
            <mxPoint x="1170" y="381" as="sourcePoint" />
            <mxPoint x="1280" y="381" as="targetPoint" />
          </mxGeometry>
        </mxCell>
        <mxCell id="vvmLUCfZbikaywOgqDu1-58" value="1" style="text;html=1;strokeColor=none;fillColor=none;align=center;verticalAlign=middle;whiteSpace=wrap;rounded=0;fontSize=16;" vertex="1" parent="1">
          <mxGeometry x="1160" y="60" width="60" height="30" as="geometry" />
        </mxCell>
        <mxCell id="vvmLUCfZbikaywOgqDu1-59" value="1..*" style="text;html=1;strokeColor=none;fillColor=none;align=center;verticalAlign=middle;whiteSpace=wrap;rounded=0;fontSize=16;" vertex="1" parent="1">
          <mxGeometry x="1170" y="350" width="60" height="30" as="geometry" />
        </mxCell>
        <mxCell id="vvmLUCfZbikaywOgqDu1-60" value="" style="endArrow=diamondThin;endFill=0;endSize=24;html=1;rounded=0;fontSize=12;curved=1;" edge="1" parent="1">
          <mxGeometry width="160" relative="1" as="geometry">
            <mxPoint x="430" y="94" as="sourcePoint" />
            <mxPoint x="230" y="93.66000000000004" as="targetPoint" />
          </mxGeometry>
        </mxCell>
        <mxCell id="vvmLUCfZbikaywOgqDu1-61" value="1..*" style="text;html=1;strokeColor=none;fillColor=none;align=center;verticalAlign=middle;whiteSpace=wrap;rounded=0;fontSize=16;" vertex="1" parent="1">
          <mxGeometry x="360" y="60" width="60" height="30" as="geometry" />
        </mxCell>
      </root>
    </mxGraphModel>
  </diagram>
</mxfile>
